<?xml version="1.0" encoding="UTF-8" standalone="no"?>
<!-- Created with Inkscape (http://www.inkscape.org/) -->

<svg
   xmlns:dc="http://purl.org/dc/elements/1.1/"
   xmlns:cc="http://creativecommons.org/ns#"
   xmlns:rdf="http://www.w3.org/1999/02/22-rdf-syntax-ns#"
   xmlns:svg="http://www.w3.org/2000/svg"
   xmlns="http://www.w3.org/2000/svg"
   xmlns:sodipodi="http://sodipodi.sourceforge.net/DTD/sodipodi-0.dtd"
   xmlns:inkscape="http://www.inkscape.org/namespaces/inkscape"
   width="226"
   height="49.814835"
   viewBox="0 0 59.795835 13.180175"
   version="1.1"
   id="svg8"
   inkscape:version="0.92.4 (5da689c313, 2019-01-14)"
   sodipodi:docname="NightOwlLogoComboLeft_Adjust_Grayscale_Clippd.svg">
  <defs
     id="defs2" />
  <sodipodi:namedview
     id="base"
     pagecolor="#ffffff"
     bordercolor="#666666"
     borderopacity="1"
     inkscape:pageopacity="0"
     inkscape:pageshadow="2"
     inkscape:zoom="1"
     inkscape:cx="-81.70681"
     inkscape:cy="25.513084"
     inkscape:document-units="px"
     inkscape:current-layer="layer1"
     showgrid="false"
     units="px"
     inkscape:pagecheckerboard="false"
     inkscape:window-width="2560"
     inkscape:window-height="1377"
     inkscape:window-x="-8"
     inkscape:window-y="-8"
     inkscape:window-maximized="1" />
  <metadata
     id="metadata5">
    <rdf:RDF>
      <cc:Work
         rdf:about="">
        <dc:format>image/svg+xml</dc:format>
        <dc:type
           rdf:resource="http://purl.org/dc/dcmitype/StillImage" />
        <dc:title></dc:title>
      </cc:Work>
    </rdf:RDF>
  </metadata>
  <g
     inkscape:label="Layer 1"
     inkscape:groupmode="layer"
     id="layer1"
     transform="translate(-128.66605,-185.5881)">
    <g
       id="g863"
       transform="matrix(0.81520106,0,0,0.81520106,23.77735,36.732167)">
      <path
         inkscape:connector-curvature="0"
         id="path5196"
         style="font-style:normal;font-variant:normal;font-weight:normal;font-stretch:normal;font-size:10.58329964px;line-height:1.25;font-family:'Vremena Grotesk';-inkscape-font-specification:'Vremena Grotesk, Normal';font-variant-ligatures:normal;font-variant-caps:normal;font-variant-numeric:normal;font-feature-settings:normal;text-align:start;letter-spacing:0px;word-spacing:0px;writing-mode:lr-tb;text-anchor:start;fill:#666666;fill-opacity:1;stroke:none;stroke-width:0.26458299"
         d="m 158.95028,191.64701 v -5.57742 l 3.73592,5.57742 h 1.27 v -7.62 h -1.2065 v 5.588 l -3.73592,-5.588 h -1.27 v 7.62 z" />
      <path
         inkscape:connector-curvature="0"
         id="path5198"
         style="font-style:normal;font-variant:normal;font-weight:normal;font-stretch:normal;font-size:10.58329964px;line-height:1.25;font-family:'Vremena Grotesk';-inkscape-font-specification:'Vremena Grotesk, Normal';font-variant-ligatures:normal;font-variant-caps:normal;font-variant-numeric:normal;font-feature-settings:normal;text-align:start;letter-spacing:0px;word-spacing:0px;writing-mode:lr-tb;text-anchor:start;fill:#666666;fill-opacity:1;stroke:none;stroke-width:0.26458299"
         d="m 166.32935,185.22293 v -1.19592 h -1.17475 v 1.19592 z m 0,6.42408 v -5.50333 h -1.17475 v 5.50333 z" />
      <path
         inkscape:connector-curvature="0"
         id="path5200"
         style="font-style:normal;font-variant:normal;font-weight:normal;font-stretch:normal;font-size:10.58329964px;line-height:1.25;font-family:'Vremena Grotesk';-inkscape-font-specification:'Vremena Grotesk, Normal';font-variant-ligatures:normal;font-variant-caps:normal;font-variant-numeric:normal;font-feature-settings:normal;text-align:start;letter-spacing:0px;word-spacing:0px;writing-mode:lr-tb;text-anchor:start;fill:#666666;fill-opacity:1;stroke:none;stroke-width:0.26458299"
         d="m 172.27203,191.29776 v -5.15408 h -1.06892 v 0.71966 c -0.3175,-0.52916 -0.8255,-0.87841 -1.51342,-0.87841 -1.44991,0 -2.37066,1.10066 -2.37066,2.88925 0,1.78858 0.94191,2.89983 2.39183,2.89983 0.58208,0 1.06892,-0.24341 1.38642,-0.66675 v 0.34925 c 0.0212,0.92075 -0.40217,1.4605 -1.3335,1.4605 -0.61384,0 -1.09009,-0.27516 -1.143,-0.78316 l -1.12184,-0.13759 c 0,1.31234 1.18534,1.87325 2.25425,1.87325 1.93675,0 2.51884,-1.2065 2.51884,-2.57175 z m -1.05834,-2.42358 c 0,1.29116 -0.59266,1.91558 -1.37583,1.91558 -0.77258,0 -1.34408,-0.62442 -1.34408,-1.91558 0,-1.28059 0.58208,-1.905 1.34408,-1.905 0.68792,0 1.37583,0.62441 1.37583,1.905 z" />
      <path
         id="path5202"
         style="font-style:normal;font-variant:normal;font-weight:normal;font-stretch:normal;font-size:10.58329964px;line-height:1.25;font-family:'Vremena Grotesk';-inkscape-font-specification:'Vremena Grotesk, Normal';font-variant-ligatures:normal;font-variant-caps:normal;font-variant-numeric:normal;font-feature-settings:normal;text-align:start;letter-spacing:0px;word-spacing:0px;writing-mode:lr-tb;text-anchor:start;fill:#666666;fill-opacity:1;stroke:none;stroke-width:0.26458299"
         d="m 174.4879,191.64701 v -2.99508 c 0,-1.09009 0.55033,-1.67217 1.30175,-1.67217 0.75142,0 1.03717,0.49742 1.03717,1.3335 v 3.33375 h 1.17475 v -3.37608 c 0,-1.31234 -0.41275,-2.286 -1.93675,-2.286 -0.71967,0 -1.23825,0.28575 -1.57692,0.889 v -2.84692 h -1.17475 v 7.62 z"
         inkscape:connector-curvature="0" />
      <path
         inkscape:connector-curvature="0"
         id="path5204"
         style="font-style:normal;font-variant:normal;font-weight:normal;font-stretch:normal;font-size:10.58329964px;line-height:1.25;font-family:'Vremena Grotesk';-inkscape-font-specification:'Vremena Grotesk, Normal';font-variant-ligatures:normal;font-variant-caps:normal;font-variant-numeric:normal;font-feature-settings:normal;text-align:start;letter-spacing:0px;word-spacing:0px;writing-mode:lr-tb;text-anchor:start;fill:#666666;fill-opacity:1;stroke:none;stroke-width:0.26458299"
         d="m 181.58004,190.66276 c -0.16933,0.0529 -0.32808,0.0635 -0.43392,0.0635 -0.49741,0 -0.49741,-0.33867 -0.49741,-0.81492 v -2.84691 h 0.97366 v -0.92075 h -0.97366 v -1.78859 l -1.17475,0.45509 v 1.3335 h -0.78317 v 0.92075 h 0.78317 v 2.97391 c 0,1.07951 0.24341,1.71451 1.397,1.71451 0.20108,0 0.60325,-0.0529 0.81491,-0.127 z" />
      <path
         inkscape:connector-curvature="0"
         id="path5206"
         style="font-style:normal;font-variant:normal;font-weight:normal;font-stretch:normal;font-size:10.58329964px;line-height:1.25;font-family:'Vremena Grotesk';-inkscape-font-specification:'Vremena Grotesk, Normal';font-variant-ligatures:normal;font-variant-caps:normal;font-variant-numeric:normal;font-feature-settings:normal;text-align:start;letter-spacing:0px;word-spacing:0px;writing-mode:lr-tb;text-anchor:start;fill:#666666;fill-opacity:1;stroke:none;stroke-width:0.26458299"
         d="m 184.43335,187.83701 c 0,2.23308 1.30175,3.96875 3.63008,3.96875 2.31775,0 3.6195,-1.73567 3.6195,-3.96875 0,-2.2225 -1.30175,-3.96875 -3.6195,-3.96875 -2.32833,0 -3.63008,1.74625 -3.63008,3.96875 z m 1.30175,0 c 0,-1.69333 0.889,-2.89983 2.32833,-2.89983 1.42875,0 2.32834,1.2065 2.32834,2.89983 0,1.69333 -0.89959,2.89983 -2.32834,2.89983 -1.50283,0 -2.32833,-1.2065 -2.32833,-2.89983 z" />
      <path
         id="path5208"
         style="font-style:normal;font-variant:normal;font-weight:normal;font-stretch:normal;font-size:10.58329964px;line-height:1.25;font-family:'Vremena Grotesk';-inkscape-font-specification:'Vremena Grotesk, Normal';font-variant-ligatures:normal;font-variant-caps:normal;font-variant-numeric:normal;font-feature-settings:normal;text-align:start;letter-spacing:0px;word-spacing:0px;writing-mode:lr-tb;text-anchor:start;fill:#666666;fill-opacity:1;stroke:none;stroke-width:0.26458299"
         d="m 195.05054,191.64701 1.10066,-4.03225 1.02659,4.03225 h 1.11125 l 1.7145,-5.50333 h -1.12184 l -1.15358,4.02166 -1.03717,-4.02166 h -1.11125 l -1.05833,4.13808 -1.0795,-4.13808 h -1.18533 l 1.66158,5.50333 z"
         inkscape:connector-curvature="0" />
      <path
         inkscape:connector-curvature="0"
         id="path5210"
         style="font-style:normal;font-variant:normal;font-weight:normal;font-stretch:normal;font-size:10.58329964px;line-height:1.25;font-family:'Vremena Grotesk';-inkscape-font-specification:'Vremena Grotesk, Normal';font-variant-ligatures:normal;font-variant-caps:normal;font-variant-numeric:normal;font-feature-settings:normal;text-align:start;letter-spacing:0px;word-spacing:0px;writing-mode:lr-tb;text-anchor:start;fill:#666666;fill-opacity:1;stroke:none;stroke-width:0.26458299"
         d="m 202.01708,191.64701 v -7.77875 l -1.17475,0.42333 v 7.35542 z" />
      <g
         id="text5236"
         style="font-style:normal;font-variant:normal;font-weight:300;font-stretch:normal;font-size:6.53203011px;line-height:1.25;font-family:Praktika;-inkscape-font-specification:'Praktika, Light';font-variant-ligatures:normal;font-variant-caps:normal;font-variant-numeric:normal;font-feature-settings:normal;text-align:start;letter-spacing:0px;word-spacing:0px;writing-mode:lr-tb;text-anchor:start;fill:#666666;fill-opacity:1;stroke:none;stroke-width:0.16330101"
         aria-label="Keyboards">
        <path
           id="path5058"
           style="font-style:normal;font-variant:normal;font-weight:300;font-stretch:normal;font-size:6.53203011px;font-family:Praktika;-inkscape-font-specification:'Praktika, Light';font-variant-ligatures:normal;font-variant-caps:normal;font-variant-numeric:normal;font-feature-settings:normal;text-align:start;writing-mode:lr-tb;text-anchor:start;fill:#666666;stroke-width:0.16330101"
           d="m 176.08921,197.25011 h 0.24168 l -1.60688,-2.73693 1.54809,-1.59381 h -0.26128 l -2.49524,2.57362 v -2.57362 h -0.20249 v 4.33074 h 0.20249 v -1.49584 l 1.05819,-1.09085 z"
           inkscape:connector-curvature="0" />
        <path
           id="path5060"
           style="font-style:normal;font-variant:normal;font-weight:300;font-stretch:normal;font-size:6.53203011px;font-family:Praktika;-inkscape-font-specification:'Praktika, Light';font-variant-ligatures:normal;font-variant-caps:normal;font-variant-numeric:normal;font-feature-settings:normal;text-align:start;writing-mode:lr-tb;text-anchor:start;fill:#666666;stroke-width:0.16330101"
           d="m 179.18641,195.82612 v -0.38539 c 0,-0.9798 -0.60748,-1.29334 -1.29334,-1.29334 -0.6924,0 -1.33907,0.32007 -1.33907,1.29334 v 0.58789 c 0,0.98633 0.62708,1.3064 1.33907,1.3064 0.54869,0 1.01246,-0.1633 1.25415,-0.53562 l -0.13717,-0.11105 c -0.24822,0.35273 -0.65974,0.47684 -1.11698,0.47684 -0.56176,0 -1.14311,-0.24822 -1.14311,-1.14311 v -0.19596 z m -1.29987,-1.5089 c 0.52256,0 1.11044,0.24822 1.11044,1.11698 v 0.23515 h -2.24702 v -0.23515 c 0,-0.86876 0.60095,-1.11698 1.13658,-1.11698 z"
           inkscape:connector-curvature="0" />
        <path
           id="path5062"
           style="font-style:normal;font-variant:normal;font-weight:300;font-stretch:normal;font-size:6.53203011px;font-family:Praktika;-inkscape-font-specification:'Praktika, Light';font-variant-ligatures:normal;font-variant-caps:normal;font-variant-numeric:normal;font-feature-settings:normal;text-align:start;writing-mode:lr-tb;text-anchor:start;fill:#666666;stroke-width:0.16330101"
           d="m 182.39211,194.23231 -1.26068,2.86103 -1.26069,-2.86103 h -0.22862 l 1.37826,3.08312 -0.51603,1.14964 h 0.20249 l 1.90736,-4.23276 z"
           inkscape:connector-curvature="0" />
        <path
           id="path5064"
           style="font-style:normal;font-variant:normal;font-weight:300;font-stretch:normal;font-size:6.53203011px;font-family:Praktika;-inkscape-font-specification:'Praktika, Light';font-variant-ligatures:normal;font-variant-caps:normal;font-variant-numeric:normal;font-feature-settings:normal;text-align:start;writing-mode:lr-tb;text-anchor:start;fill:#666666;stroke-width:0.16330101"
           d="m 184.73242,194.14739 c -0.54216,0 -1.06473,0.17637 -1.26722,0.70546 V 192.436 h -0.19596 v 4.81411 h 0.1829 v -0.56829 c 0.18289,0.45724 0.6728,0.6532 1.24762,0.6532 0.72505,0 1.36519,-0.307 1.36519,-1.28028 v -0.64667 c 0,-0.96021 -0.64014,-1.26068 -1.33253,-1.26068 z m 1.13657,1.90082 c 0,0.8753 -0.64014,1.11698 -1.19536,1.11698 -0.52257,0 -1.16271,-0.20249 -1.20843,-0.97327 v -0.8753 c 0.0849,-0.80997 0.71852,-0.9994 1.24109,-0.9994 0.52256,0 1.1627,0.23516 1.1627,1.09739 z"
           inkscape:connector-curvature="0" />
        <path
           id="path5066"
           style="font-style:normal;font-variant:normal;font-weight:300;font-stretch:normal;font-size:6.53203011px;font-family:Praktika;-inkscape-font-specification:'Praktika, Light';font-variant-ligatures:normal;font-variant-caps:normal;font-variant-numeric:normal;font-feature-settings:normal;text-align:start;writing-mode:lr-tb;text-anchor:start;fill:#666666;stroke-width:0.16330101"
           d="m 188.18398,197.33502 c 0.73812,0 1.41092,-0.31353 1.41092,-1.31947 v -0.54216 c 0,-1.01246 -0.6728,-1.326 -1.41092,-1.326 -0.73812,0 -1.41092,0.32007 -1.41092,1.326 v 0.54216 c 0,0.9994 0.6728,1.31947 1.41092,1.31947 z m 0,-0.16983 c -0.56175,0 -1.21496,-0.24822 -1.21496,-1.14964 v -0.54216 c 0,-0.90142 0.65321,-1.15617 1.21496,-1.15617 0.56176,0 1.21496,0.25475 1.21496,1.15617 v 0.54216 c 0,0.90142 -0.6532,1.14964 -1.21496,1.14964 z"
           inkscape:connector-curvature="0" />
        <path
           id="path5068"
           style="font-style:normal;font-variant:normal;font-weight:300;font-stretch:normal;font-size:6.53203011px;font-family:Praktika;-inkscape-font-specification:'Praktika, Light';font-variant-ligatures:normal;font-variant-caps:normal;font-variant-numeric:normal;font-feature-settings:normal;text-align:start;writing-mode:lr-tb;text-anchor:start;fill:#666666;stroke-width:0.16330101"
           d="m 191.52226,194.14739 c -0.4899,0 -0.90142,0.15677 -1.19536,0.5291 l 0.11758,0.1241 c 0.31353,-0.35273 0.62054,-0.48337 1.05819,-0.48337 0.53562,0 1.05165,0.17637 1.05165,0.93408 v 0.35927 h -1.22149 c -0.65973,0 -1.07778,0.22209 -1.07778,0.86222 0,0.56829 0.37232,0.86223 1.00593,0.86223 0.50297,0 1.05819,-0.18943 1.31294,-0.64667 v 0.56176 h 0.17636 v -2.01187 c 0,-0.8557 -0.56175,-1.09085 -1.22802,-1.09085 z m -0.23515,3.02433 c -0.5291,0 -0.84263,-0.26128 -0.84263,-0.70546 0,-0.55522 0.39192,-0.69239 0.89488,-0.69239 h 1.21496 v 0.65973 c -0.17636,0.54869 -0.78384,0.73812 -1.26721,0.73812 z"
           inkscape:connector-curvature="0" />
        <path
           id="path5070"
           style="font-style:normal;font-variant:normal;font-weight:300;font-stretch:normal;font-size:6.53203011px;font-family:Praktika;-inkscape-font-specification:'Praktika, Light';font-variant-ligatures:normal;font-variant-caps:normal;font-variant-numeric:normal;font-feature-settings:normal;text-align:start;writing-mode:lr-tb;text-anchor:start;fill:#666666;stroke-width:0.16330101"
           d="m 194.93168,194.14739 c -0.41152,0 -0.78385,0.23515 -0.95368,0.59442 v -0.5095 h -0.1829 v 3.0178 h 0.19596 v -2.28622 c 0.17637,-0.36579 0.5095,-0.64013 0.92102,-0.64013 0.26781,0 0.44418,0.0784 0.60748,0.20902 l 0.0914,-0.17636 c -0.16983,-0.11758 -0.3658,-0.20903 -0.67933,-0.20903 z"
           inkscape:connector-curvature="0" />
        <path
           id="path5072"
           style="font-style:normal;font-variant:normal;font-weight:300;font-stretch:normal;font-size:6.53203011px;font-family:Praktika;-inkscape-font-specification:'Praktika, Light';font-variant-ligatures:normal;font-variant-caps:normal;font-variant-numeric:normal;font-feature-settings:normal;text-align:start;writing-mode:lr-tb;text-anchor:start;fill:#666666;stroke-width:0.16330101"
           d="m 198.52052,192.436 v 2.33847 c -0.23515,-0.46378 -0.73812,-0.62708 -1.22149,-0.62708 -0.73159,0 -1.39132,0.32007 -1.39132,1.31947 v 0.55522 c 0,0.99287 0.6532,1.31294 1.38479,1.31294 0.48337,0 0.98634,-0.16983 1.24109,-0.66626 l 0.007,0.58135 h 0.17636 V 192.436 Z m -1.20189,4.72919 c -0.56829,0 -1.21496,-0.24822 -1.21496,-1.14964 v -0.54216 c 0,-0.90795 0.64667,-1.15617 1.22149,-1.15617 0.44418,0 1.03206,0.1829 1.19536,0.79038 v 1.25415 c -0.20902,0.61401 -0.76425,0.80344 -1.20189,0.80344 z"
           inkscape:connector-curvature="0" />
        <path
           id="path5074"
           style="font-style:normal;font-variant:normal;font-weight:300;font-stretch:normal;font-size:6.53203011px;font-family:Praktika;-inkscape-font-specification:'Praktika, Light';font-variant-ligatures:normal;font-variant-caps:normal;font-variant-numeric:normal;font-feature-settings:normal;text-align:start;writing-mode:lr-tb;text-anchor:start;fill:#666666;stroke-width:0.16330101"
           d="m 200.74376,197.33502 c 0.65973,0 1.23455,-0.21555 1.23455,-0.8361 0,-0.45724 -0.24168,-0.69239 -0.77078,-0.80997 l -0.80997,-0.17636 c -0.37232,-0.0849 -0.63361,-0.24169 -0.63361,-0.60095 0,-0.42458 0.5095,-0.60095 0.96674,-0.60095 0.48338,0 0.90796,0.1829 1.14964,0.58135 l 0.13064,-0.11104 c -0.25475,-0.42458 -0.69239,-0.63361 -1.28681,-0.63361 -0.61401,0 -1.14964,0.24822 -1.14964,0.77078 0,0.41152 0.27435,0.64014 0.77078,0.75772 l 0.80998,0.17636 c 0.42458,0.098 0.6336,0.28741 0.6336,0.6532 0,0.5095 -0.54215,0.66627 -1.04512,0.66627 -0.47031,0 -0.88183,-0.18943 -1.17577,-0.58788 l -0.12411,0.11758 c 0.30701,0.41805 0.73159,0.6336 1.29988,0.6336 z"
           inkscape:connector-curvature="0" />
      </g>
      <path
         id="path5212-3"
         transform="matrix(0.26458334,0,0,0.26458334,0,85.333333)"
         d="m 505.57422,367.62305 31.64648,24.44336 31.64453,-24.44336 h -11.4707 l -20.17383,15.95507 -20.17578,-15.95507 z m -19.27734,3.39453 8.92968,6.54883 a 26.406252,26.406252 0 0 0 -7.82812,18.68359 26.406252,26.406252 0 0 0 26.40429,26.40625 26.406252,26.406252 0 0 0 12.96485,-3.41992 l -4.30078,-6.41992 a 18.724433,18.724433 0 0 1 -8.66407,2.1582 18.724433,18.724433 0 0 1 -18.72265,-18.72461 18.724433,18.724433 0 0 1 6.43164,-14.07617 l 6.10937,4.48047 a 10.863733,10.863733 0 0 0 -4.68164,8.91797 10.863733,10.863733 0 0 0 10.86328,10.86328 10.863733,10.863733 0 0 0 10.375,-7.64063 l 7.25,5.31836 c -1.74224,2.56397 -3.78873,4.90504 -6.08984,6.89063 l 11.88281,17.72656 11.88086,-17.72656 c -2.30073,-1.98525 -4.34778,-4.32523 -6.08984,-6.88868 l 7.25195,-5.31835 a 10.863733,10.863733 0 0 0 10.37305,7.63867 10.863733,10.863733 0 0 0 10.86328,-10.86328 10.863733,10.863733 0 0 0 -4.67969,-8.91602 l 6.10938,-4.48047 a 18.724433,18.724433 0 0 1 6.43164,14.07422 18.724433,18.724433 0 0 1 -18.72461,18.72461 18.724433,18.724433 0 0 1 -8.66211,-2.1582 l -4.30273,6.41992 a 26.406252,26.406252 0 0 0 12.96484,3.41992 26.406252,26.406252 0 0 0 26.40625,-26.40625 26.406252,26.406252 0 0 0 -7.83008,-18.68359 l 8.93164,-6.54883 H 574.56445 L 537.2207,399.87305 499.875,371.01758 Z"
         style="font-style:normal;font-variant:normal;font-weight:normal;font-stretch:normal;font-size:10.58329964px;line-height:1.25;font-family:'Vremena Grotesk';-inkscape-font-specification:'Vremena Grotesk, Normal';font-variant-ligatures:normal;font-variant-caps:normal;font-variant-numeric:normal;font-feature-settings:normal;text-align:start;letter-spacing:0px;word-spacing:0px;writing-mode:lr-tb;text-anchor:start;fill:#666666;fill-opacity:1;stroke:none;stroke-width:0.13966979"
         inkscape:connector-curvature="0" />
    </g>
  </g>
</svg>
